<svg xmlns="http://www.w3.org/2000/svg" width="592" height="80.96" viewBox="370 462 592 80.96" fill="none" preserveAspectRatio="none"><line x1="370.44" y1="498.96" x2="370.44" y2="506" stroke="#003930" stroke-width="0.88" />
<line x1="663.388" y1="497.2" x2="663.388" y2="507.76" stroke="#003930" stroke-width="0.88" />
<line x1="516.914" y1="498.96" x2="516.914" y2="506" stroke="#003930" stroke-width="0.88" />
<line x1="809.862" y1="498.96" x2="809.862" y2="506" stroke="#003930" stroke-width="0.88" />
<line x1="443.677" y1="497.2" x2="443.677" y2="507.76" stroke="#003930" stroke-width="0.88" />
<line x1="736.625" y1="498.96" x2="736.625" y2="506" stroke="#003930" stroke-width="0.88" />
<line x1="590.151" y1="495.439" x2="590.151" y2="509.519" stroke="#003930" stroke-width="0.88" />
<line x1="883.1" y1="498.96" x2="883.1" y2="506" stroke="#003930" stroke-width="0.88" />
<line x1="407.059" y1="484.88" x2="407.059" y2="520.08" stroke="#003930" stroke-width="0.88" />
<line x1="553.532" y1="484.88" x2="553.532" y2="520.08" stroke="#003930" stroke-width="0.88" />
<line x1="846.481" y1="498.96" x2="846.481" y2="506" stroke="#003930" stroke-width="0.88" />
<line x1="480.296" y1="498.08" x2="480.296" y2="506.88" stroke="#003930" stroke-width="0.88" />
<line x1="773.244" y1="498.96" x2="773.244" y2="506" stroke="#003930" stroke-width="0.88" />
<line x1="626.77" y1="497.2" x2="626.77" y2="507.76" stroke="#003930" stroke-width="0.88" />
<line x1="919.72" y1="498.96" x2="919.72" y2="506" stroke="#003930" stroke-width="0.88" />
<line x1="388.749" y1="480.48" x2="388.749" y2="524.48" stroke="#003930" stroke-width="0.88" />
<line x1="681.697" y1="497.2" x2="681.697" y2="507.76" stroke="#003930" stroke-width="0.88" />
<line x1="535.224" y1="493.68" x2="535.224" y2="511.28" stroke="#003930" stroke-width="0.88" />
<line x1="828.172" y1="498.96" x2="828.172" y2="506" stroke="#003930" stroke-width="0.88" />
<line x1="461.987" y1="497.2" x2="461.987" y2="507.76" stroke="#003930" stroke-width="0.88" />
<line x1="754.935" y1="498.96" x2="754.935" y2="506" stroke="#003930" stroke-width="0.88" />
<line x1="608.46" y1="494.561" x2="608.46" y2="510.401" stroke="#003930" stroke-width="0.88" />
<line x1="901.409" y1="498.96" x2="901.409" y2="506" stroke="#003930" stroke-width="0.88" />
<line x1="425.367" y1="497.2" x2="425.367" y2="507.76" stroke="#003930" stroke-width="0.88" />
<line x1="718.315" y1="498.96" x2="718.315" y2="506" stroke="#003930" stroke-width="0.88" />
<line x1="571.843" y1="484.88" x2="571.843" y2="520.08" stroke="#003930" stroke-width="0.88" />
<line x1="864.791" y1="498.96" x2="864.791" y2="506" stroke="#003930" stroke-width="0.88" />
<line x1="498.604" y1="497.2" x2="498.604" y2="507.76" stroke="#003930" stroke-width="0.88" />
<line x1="791.553" y1="498.96" x2="791.553" y2="506" stroke="#003930" stroke-width="0.88" />
<line x1="645.08" y1="497.2" x2="645.08" y2="507.76" stroke="#003930" stroke-width="0.88" />
<line x1="938.031" y1="498.96" x2="938.031" y2="506" stroke="#003930" stroke-width="0.88" />
<line x1="376.544" y1="490.16" x2="376.544" y2="514.8" stroke="#003930" stroke-width="0.88" />
<line x1="669.492" y1="497.2" x2="669.492" y2="507.76" stroke="#003930" stroke-width="0.88" />
<line x1="523.017" y1="498.08" x2="523.017" y2="506.88" stroke="#003930" stroke-width="0.88" />
<line x1="815.966" y1="498.96" x2="815.966" y2="506" stroke="#003930" stroke-width="0.88" />
<line x1="449.78" y1="497.2" x2="449.78" y2="507.76" stroke="#003930" stroke-width="0.88" />
<line x1="742.729" y1="498.96" x2="742.729" y2="506" stroke="#003930" stroke-width="0.88" />
<line x1="596.255" y1="497.2" x2="596.255" y2="507.76" stroke="#003930" stroke-width="0.88" />
<line x1="889.203" y1="498.96" x2="889.203" y2="506" stroke="#003930" stroke-width="0.88" />
<line x1="413.16" y1="490.16" x2="413.16" y2="514.8" stroke="#003930" stroke-width="0.88" />
<line x1="706.11" y1="498.96" x2="706.11" y2="506" stroke="#003930" stroke-width="0.88" />
<line x1="559.636" y1="470.801" x2="559.636" y2="534.161" stroke="#003930" stroke-width="0.88" />
<line x1="852.585" y1="498.96" x2="852.585" y2="506" stroke="#003930" stroke-width="0.88" />
<line x1="486.4" y1="497.2" x2="486.4" y2="507.76" stroke="#003930" stroke-width="0.88" />
<line x1="779.347" y1="498.96" x2="779.347" y2="506" stroke="#003930" stroke-width="0.88" />
<line x1="632.873" y1="497.2" x2="632.873" y2="507.76" stroke="#003930" stroke-width="0.88" />
<line x1="925.822" y1="498.96" x2="925.822" y2="506" stroke="#003930" stroke-width="0.88" />
<line x1="394.851" y1="476.96" x2="394.852" y2="528" stroke="#003930" stroke-width="0.88" />
<line x1="687.8" y1="497.2" x2="687.8" y2="507.76" stroke="#003930" stroke-width="0.88" />
<line x1="541.327" y1="490.16" x2="541.327" y2="514.8" stroke="#003930" stroke-width="0.88" />
<line x1="834.277" y1="498.96" x2="834.277" y2="506" stroke="#003930" stroke-width="0.88" />
<line x1="468.09" y1="497.2" x2="468.09" y2="507.76" stroke="#003930" stroke-width="0.88" />
<line x1="761.037" y1="498.96" x2="761.037" y2="506" stroke="#003930" stroke-width="0.88" />
<line x1="614.565" y1="490.16" x2="614.565" y2="514.8" stroke="#003930" stroke-width="0.88" />
<line x1="907.513" y1="498.96" x2="907.513" y2="506" stroke="#003930" stroke-width="0.88" />
<line x1="431.472" y1="496.32" x2="431.472" y2="508.64" stroke="#003930" stroke-width="0.88" />
<line x1="724.42" y1="498.96" x2="724.42" y2="506" stroke="#003930" stroke-width="0.88" />
<line x1="577.943" y1="489.28" x2="577.943" y2="515.68" stroke="#003930" stroke-width="0.88" />
<line x1="870.894" y1="498.96" x2="870.894" y2="506" stroke="#003930" stroke-width="0.88" />
<line x1="504.708" y1="497.2" x2="504.708" y2="507.76" stroke="#003930" stroke-width="0.88" />
<line x1="797.656" y1="498.96" x2="797.656" y2="506" stroke="#003930" stroke-width="0.88" />
<line x1="651.183" y1="497.2" x2="651.183" y2="507.76" stroke="#003930" stroke-width="0.88" />
<line x1="944.132" y1="498.96" x2="944.132" y2="506" stroke="#003930" stroke-width="0.88" />
<line x1="382.646" y1="484.88" x2="382.646" y2="520.08" stroke="#003930" stroke-width="0.88" />
<line x1="675.594" y1="497.2" x2="675.594" y2="507.76" stroke="#003930" stroke-width="0.88" />
<line x1="529.119" y1="495.439" x2="529.119" y2="509.519" stroke="#003930" stroke-width="0.88" />
<line x1="822.069" y1="498.96" x2="822.069" y2="506" stroke="#003930" stroke-width="0.88" />
<line x1="455.883" y1="497.2" x2="455.883" y2="507.76" stroke="#003930" stroke-width="0.88" />
<line x1="748.831" y1="498.96" x2="748.831" y2="506" stroke="#003930" stroke-width="0.88" />
<line x1="602.356" y1="498.08" x2="602.356" y2="506.88" stroke="#003930" stroke-width="0.88" />
<line x1="895.307" y1="498.96" x2="895.307" y2="506" stroke="#003930" stroke-width="0.88" />
<line x1="419.264" y1="496.32" x2="419.264" y2="508.64" stroke="#003930" stroke-width="0.88" />
<line x1="712.214" y1="498.96" x2="712.214" y2="506" stroke="#003930" stroke-width="0.88" />
<line x1="565.738" y1="477.84" x2="565.738" y2="527.12" stroke="#003930" stroke-width="0.88" />
<line x1="858.689" y1="498.96" x2="858.689" y2="506" stroke="#003930" stroke-width="0.88" />
<line x1="492.501" y1="497.2" x2="492.501" y2="507.76" stroke="#003930" stroke-width="0.88" />
<line x1="785.451" y1="498.96" x2="785.451" y2="506" stroke="#003930" stroke-width="0.88" />
<line x1="638.975" y1="497.2" x2="638.975" y2="507.76" stroke="#003930" stroke-width="0.88" />
<line x1="931.925" y1="498.96" x2="931.925" y2="506" stroke="#003930" stroke-width="0.88" />
<line x1="400.955" y1="480.48" x2="400.955" y2="524.48" stroke="#003930" stroke-width="0.88" />
<line x1="693.905" y1="497.2" x2="693.905" y2="507.76" stroke="#003930" stroke-width="0.88" />
<line x1="547.429" y1="493.68" x2="547.429" y2="511.28" stroke="#003930" stroke-width="0.88" />
<line x1="840.379" y1="498.96" x2="840.379" y2="506" stroke="#003930" stroke-width="0.88" />
<line x1="474.191" y1="497.2" x2="474.191" y2="507.76" stroke="#003930" stroke-width="0.88" />
<line x1="767.142" y1="498.96" x2="767.142" y2="506" stroke="#003930" stroke-width="0.88" />
<line x1="620.666" y1="482.24" x2="620.666" y2="522.72" stroke="#003930" stroke-width="0.88" />
<line x1="913.614" y1="498.96" x2="913.615" y2="506" stroke="#003930" stroke-width="0.88" />
<line x1="437.574" y1="497.2" x2="437.574" y2="507.76" stroke="#003930" stroke-width="0.88" />
<line x1="730.524" y1="498.96" x2="730.524" y2="506" stroke="#003930" stroke-width="0.88" />
<line x1="584.049" y1="491.92" x2="584.049" y2="513.04" stroke="#003930" stroke-width="0.88" />
<line x1="876.997" y1="498.96" x2="876.997" y2="506" stroke="#003930" stroke-width="0.88" />
<line x1="510.811" y1="497.2" x2="510.811" y2="507.76" stroke="#003930" stroke-width="0.88" />
<line x1="803.76" y1="498.96" x2="803.76" y2="506" stroke="#003930" stroke-width="0.88" />
<line x1="657.283" y1="497.2" x2="657.283" y2="507.76" stroke="#003930" stroke-width="0.88" />
<line x1="950.232" y1="498.96" x2="950.232" y2="506" stroke="#003930" stroke-width="0.88" />
<line x1="956.337" y1="498.96" x2="956.337" y2="506" stroke="#003930" stroke-width="0.88" />
<line x1="962.44" y1="498.96" x2="962.44" y2="506" stroke="#003930" stroke-width="0.88" />
</svg>