<svg xmlns="http://www.w3.org/2000/svg" width="16" height="16" viewBox="34 200 16 16" fill="none"><path d="M43.404 203.702C43.5891 203.794 43.7931 203.843 44 203.843C44.2069 203.843 44.4109 203.794 44.596 203.702L47.0353 202.482C47.1371 202.431 47.2501 202.407 47.3637 202.412C47.4773 202.418 47.5876 202.452 47.6843 202.512C47.781 202.571 47.8607 202.655 47.916 202.754C47.9713 202.854 48.0002 202.966 48 203.079V211.589C47.9999 211.712 47.9654 211.834 47.9003 211.939C47.8352 212.044 47.7421 212.129 47.6313 212.185L44.596 213.703C44.4109 213.795 44.2069 213.843 44 213.843C43.7931 213.843 43.5891 213.795 43.404 213.703L40.596 212.299C40.4109 212.206 40.2069 212.158 40 212.158C39.7931 212.158 39.5891 212.206 39.404 212.299L36.9647 213.519C36.8629 213.57 36.7498 213.593 36.6362 213.588C36.5225 213.583 36.4121 213.549 36.3154 213.489C36.2187 213.429 36.139 213.345 36.0838 213.246C36.0286 213.146 35.9997 213.034 36 212.921V204.412C36.0001 204.288 36.0346 204.167 36.0997 204.062C36.1648 203.956 36.2579 203.871 36.3687 203.816L39.404 202.298C39.5891 202.206 39.7931 202.157 40 202.157C40.2069 202.157 40.4109 202.206 40.596 202.298L43.404 203.702Z" stroke="#4D4D4D" stroke-width="1.33333" stroke-linecap="round" stroke-linejoin="round" />
<path d="M44 203.843V213.843" stroke="#4D4D4D" stroke-width="1.33333" stroke-linecap="round" stroke-linejoin="round" />
<path d="M40 202.157V212.157" stroke="#4D4D4D" stroke-width="1.33333" stroke-linecap="round" stroke-linejoin="round" />
</svg>